PathFileType	4	(X/Y/Z)	abd.trc
DataRate	CameraRate	NumFrames	NumMarkers	Units	OrigDataRate	OrigDataStartFrame	OrigNumFrames
100.0	100.0	6	17	mm	100.0	595	1189
Frame#	Time	STER			XIPH			T10			T1			CLAV_SC			CLAV_AC			SCAP_AA			SCAP_CP			SCAP_TS			SCAP_IA			DELT			ARMl			EPICm			EPICl			LARM_elb			STYLr			STYLu		
		X1	Y1	Z1	X2	Y2	Z2	X3	Y3	Z3	X4	Y4	Z4	X5	Y5	Z5	X6	Y6	Z6	X7	Y7	Z7	X8	Y8	Z8	X9	Y9	Z9	X10	Y10	Z10	X11	Y11	Z11	X12	Y12	Z12	X13	Y13	Z13	X14	Y14	Z14	X15	Y15	Z15	X16	Y16	Z16	X17	Y17	Z17

595	5.94	391.0804443359375	85.66751098632812	1439.0760498046875	394.70574951171875	134.43443298339844	1275.526611328125	386.4405212402344	-103.66584777832031	1246.7967529296875	369.88140869140625	-72.79658508300781	1475.1348876953125	nan	nan	nan	543.1408081054688	-22.113271713256836	1493.0902099609375	550.1796264648438	-59.603397369384766	1474.2022705078125	502.2978515625	-63.813114166259766	1487.250732421875	496.33905029296875	-113.97593688964844	1428.4775390625	495.0564270019531	-118.38340759277344	1290.697509765625	670.9337158203125	-57.23137283325195	1476.683837890625	712.162841796875	-69.84909057617188	1464.295654296875	852.7060546875	-30.254606246948242	1385.9110107421875	832.5587768554688	-67.45565795898438	1479.215087890625	877.5548706054688	-71.54913330078125	1404.4122314453125	1005.2193603515625	132.39967346191406	1557.7177734375	1038.6549072265625	116.84888458251953	1484.5596923828125
596	5.95	391.0114440917969	85.81378936767578	1439.03857421875	394.8058776855469	134.45205688476562	1275.4674072265625	386.38861083984375	-103.66275787353516	1246.8631591796875	369.70684814453125	-72.70173645019531	1475.1639404296875	425.51611328125	74.86097717285156	1448.8861083984375	543.642333984375	-22.195934295654297	1493.491943359375	550.0576782226562	-59.380008697509766	1474.088134765625	502.2234802246094	-63.6209831237793	1487.259521484375	496.22662353515625	-113.8744125366211	1428.5299072265625	494.89556884765625	-118.39057922363281	1290.7479248046875	671.8045654296875	-56.791969299316406	1476.1551513671875	712.1555786132812	-69.61767578125	1463.6036376953125	852.41552734375	-30.046306610107422	1384.697998046875	832.635498046875	-67.18062591552734	1478.103515625	877.4083251953125	-71.33796691894531	1403.09912109375	1005.6597290039062	132.6687469482422	1555.7886962890625	1038.8267822265625	117.06307983398438	1482.5487060546875
597	5.96	390.8955383300781	85.91653442382812	1438.7952880859375	394.6326599121094	134.46913146972656	1275.5634765625	386.3757019042969	-103.67073822021484	1246.900146484375	369.6036071777344	-72.61724853515625	1475.2088623046875	425.2114562988281	74.9164810180664	1448.759521484375	543.6248779296875	-22.024248123168945	1493.3935546875	550.09521484375	-59.23967361450195	1474.0811767578125	502.193603515625	-63.4383659362793	1487.2818603515625	496.2207946777344	-113.76011657714844	1428.5660400390625	494.83148193359375	-118.38687896728516	1290.7554931640625	671.915771484375	-56.59141540527344	1475.603515625	712.1834106445312	-69.37776184082031	1462.8919677734375	852.1268310546875	-29.843170166015625	1383.4088134765625	832.6980590820312	-66.89546203613281	1476.9447021484375	877.244384765625	-71.16252136230469	1401.7081298828125	1006.1553344726562	133.0201873779297	1553.6287841796875	1039.00244140625	117.2139892578125	1480.325439453125
598	5.97	390.47271728515625	85.88104248046875	1438.8348388671875	394.5596618652344	134.4841766357422	1275.3892822265625	386.3188781738281	-103.67176818847656	1246.9530029296875	369.50103759765625	-72.5279769897461	1475.2303466796875	425.0789794921875	75.03641510009766	1448.6510009765625	543.178955078125	-21.675308227539062	1492.8358154296875	550.0462646484375	-59.04029846191406	1473.9691162109375	502.1689147949219	-63.25455856323242	1487.2496337890625	496.1428527832031	-113.70865631103516	1428.7327880859375	494.7023010253906	-118.4109115600586	1290.794189453125	671.5620727539062	-56.53802490234375	1475.224609375	712.2162475585938	-69.1719741821289	1462.1341552734375	851.8258056640625	-29.674091339111328	1382.057861328125	832.802490234375	-66.60527038574219	1475.739501953125	877.1043701171875	-71.01461791992188	1400.2618408203125	1006.6317749023438	133.32061767578125	1551.3387451171875	1039.2265625	117.36959838867188	1477.868408203125
599	5.98	390.24652099609375	85.94315338134766	1438.752685546875	394.5919189453125	134.5100860595703	1275.356201171875	386.2567138671875	-103.67485809326172	1246.9993896484375	369.4346923828125	-72.4167251586914	1475.2513427734375	424.9293212890625	75.12216186523438	1448.5771484375	543.7002563476562	-21.700727462768555	1493.148193359375	550.0576171875	-58.88444900512695	1473.8807373046875	502.15087890625	-63.064823150634766	1487.228759765625	496.1398620605469	-113.61473083496094	1428.6373291015625	494.5655517578125	-118.42652130126953	1290.897216796875	671.2432250976562	-56.42919158935547	1474.4522705078125	712.2614135742188	-68.95747375488281	1461.3018798828125	851.5638427734375	-29.552648544311523	1380.628173828125	832.9234619140625	-66.29723358154297	1474.448486328125	876.9371948242188	-70.90672302246094	1398.723388671875	1007.186767578125	133.66079711914062	1548.7979736328125	1039.4918212890625	117.55821228027344	1475.2255859375
600	5.99	390.0284118652344	85.95213317871094	1438.6419677734375	394.5057067871094	134.4992218017578	1275.438720703125	386.2487487792969	-103.67515563964844	1247.030517578125	369.3614196777344	-72.33386993408203	1475.25390625	424.9414978027344	75.24818420410156	1448.5269775390625	543.7406616210938	-21.553544998168945	1493.087890625	550.0479125976562	-58.6807746887207	1473.732177734375	502.1606750488281	-62.89712142944336	1487.1839599609375	496.14276123046875	-113.5313491821289	1428.7720947265625	494.5269775390625	-118.44154357910156	1290.8953857421875	671.369140625	-56.232948303222656	1473.7181396484375	712.3502197265625	-68.76113891601562	1460.453369140625	851.2606811523438	-29.472412109375	1379.082275390625	833.0785522460938	-66.01419830322266	1473.06640625	876.787109375	-70.7813949584961	1397.0972900390625	1008.02490234375	134.0029754638672	1546.175048828125	1039.7685546875	117.70175170898438	1472.48486328125
